<svg width="25" height="22" viewBox="0 0 25 22" fill="none" xmlns="http://www.w3.org/2000/svg">
<g clip-path="url(#clip0_9_12)">
<path opacity="0.7" d="M12.4287 0C10.0537 0 7.99125 0.29625 7.65375 2.2725H3.97625C1.7625 2.2725 0 4.18125 0 6.49V16.2287C0 18.5362 1.7625 20.4538 3.9775 20.4538H21.0225C23.2375 20.4538 25 18.5362 25 16.2287V6.49C25 4.18125 23.2375 2.2725 21.0225 2.2725H17.205C16.8675 0.29625 14.805 0 12.43 0H12.4287ZM12.5 1.13875C14.2312 1.13875 15.5875 1.0225 15.9088 2.2725H9.09125C9.4125 1.0225 10.7688 1.13875 12.5 1.13875ZM3.9775 3.40875H21.0225C22.585 3.40875 23.8637 4.66375 23.8637 6.29125V7.53625C21.4562 8.95625 18.2237 9.9425 14.595 10.2275C14.3075 9.36 13.4462 8.72375 12.4287 8.72375C11.4112 8.72375 10.55 9.36 10.2625 10.2275C6.705 9.9475 3.52875 8.995 1.1375 7.62V6.29125C1.1375 4.66375 2.415 3.40875 3.9775 3.40875ZM23.8625 8.9875V16.2137C23.8625 17.9612 22.5837 19.32 21.0212 19.32H3.9775C2.415 19.32 1.13625 17.9612 1.13625 16.2137V9.09125C3.63125 10.4975 6.68875 11.2587 10.1425 11.5437L10.2338 11.9025C10.3619 12.388 10.6462 12.8179 11.0429 13.1258C11.4396 13.4337 11.9266 13.6026 12.4287 13.6063C12.9219 13.6027 13.4007 13.4399 13.7937 13.1421C14.1868 12.8444 14.4731 12.4275 14.61 11.9537C14.625 11.9037 14.7063 11.5937 14.7175 11.5437C18.2363 11.2537 21.3475 10.435 23.8637 8.98625L23.8625 8.9875ZM12.5 10C13.1975 10 13.75 10.5525 13.75 11.25C13.75 11.9475 13.1975 12.5 12.5 12.5C11.8025 12.5 11.25 11.9475 11.25 11.25C11.25 10.5525 11.8025 10 12.5 10Z" fill="black"/>
</g>
<defs>
<clipPath id="clip0_9_12">
<rect width="25" height="21.25" fill="white"/>
</clipPath>
</defs>
</svg>
