<svg width="25" height="25" viewBox="0 0 25 25" fill="none" xmlns="http://www.w3.org/2000/svg">
<path fill-rule="evenodd" clip-rule="evenodd" d="M2.57187 7.25937C2.64444 7.18662 2.73065 7.1289 2.82557 7.08951C2.92048 7.05013 3.02223 7.02985 3.12499 7.02985C3.22775 7.02985 3.32951 7.05013 3.42442 7.08951C3.51933 7.1289 3.60555 7.18662 3.67812 7.25937L12.5 16.0828L21.3219 7.25937C21.3945 7.18674 21.4807 7.12912 21.5756 7.08981C21.6705 7.0505 21.7723 7.03026 21.875 7.03026C21.9777 7.03026 22.0794 7.0505 22.1743 7.08981C22.2692 7.12912 22.3555 7.18674 22.4281 7.25937C22.5008 7.33201 22.5584 7.41825 22.5977 7.51315C22.637 7.60806 22.6572 7.70978 22.6572 7.8125C22.6572 7.91522 22.637 8.01694 22.5977 8.11185C22.5584 8.20675 22.5008 8.29299 22.4281 8.36563L13.0531 17.7406C12.9805 17.8134 12.8943 17.8711 12.7994 17.9105C12.7045 17.9499 12.6028 17.9701 12.5 17.9701C12.3972 17.9701 12.2955 17.9499 12.2006 17.9105C12.1057 17.8711 12.0194 17.8134 11.9469 17.7406L2.57187 8.36563C2.49911 8.29305 2.44139 8.20684 2.402 8.11193C2.36262 8.01701 2.34235 7.91526 2.34235 7.8125C2.34235 7.70974 2.36262 7.60799 2.402 7.51307C2.44139 7.41816 2.49911 7.33195 2.57187 7.25937Z" fill="#747776"/>
</svg>
