<svg width="25" height="25" viewBox="0 0 25 25" fill="none" xmlns="http://www.w3.org/2000/svg">
<g clip-path="url(#clip0_10_22)">
<path d="M21.0031 3.6063C19.8641 2.45946 18.5086 1.55015 17.0155 0.931107C15.5223 0.312062 13.9211 -0.00440838 12.3047 4.63837e-05C9.02033 4.63837e-05 5.92658 1.2813 3.60627 3.6063C2.46076 4.74637 1.55232 6.10198 0.933371 7.59492C0.314419 9.08786 -0.00279832 10.6886 1.85973e-05 12.3047C1.85973e-05 15.5891 1.28127 18.6829 3.60627 21.0032C4.74634 22.1487 6.10195 23.0571 7.59489 23.6761C9.08783 24.295 10.6886 24.6122 12.3047 24.6094C15.5891 24.6094 18.6828 23.3282 21.0031 21.0032C22.1487 19.8631 23.0571 18.5075 23.676 17.0145C24.295 15.5216 24.6122 13.9209 24.6094 12.3047C24.6094 9.02036 23.3281 5.92661 21.0031 3.6063ZM23.4938 11.7516H18.7235C18.6766 9.85317 18.411 8.02505 17.9453 6.40317C18.861 5.9303 19.7131 5.34333 20.4813 4.6563C22.2952 6.58925 23.3629 9.10407 23.4938 11.7516ZM12.8594 12.8594H17.625C17.5953 14.5205 17.3607 16.1715 16.9266 17.775C15.6301 17.2541 14.2551 16.9557 12.8594 16.8922V12.8594ZM19.6875 3.88755C19.0486 4.44924 18.3477 4.93624 17.5985 5.33911C17.4147 4.82371 17.1981 4.3206 16.95 3.83286C16.4735 2.88755 15.9313 2.11411 15.3328 1.52036C16.9437 1.97332 18.432 2.78289 19.6875 3.88911V3.88755ZM12.8578 1.27505C14.0078 1.5313 15.0922 2.59223 15.9672 4.3188C16.2016 4.78755 16.4125 5.28286 16.5985 5.81098C15.4086 6.30224 14.1435 6.58603 12.8578 6.65005V1.27505ZM16.9297 6.87036C17.3422 8.35786 17.5781 10.0188 17.6172 11.7579H12.8594V7.75942C14.2571 7.69439 15.6337 7.39381 16.9313 6.87036H16.9297ZM11.7516 11.7516H6.98596C7.02658 10.0141 7.26252 8.35161 7.67346 6.86567C8.97047 7.39199 10.3484 7.69115 11.7469 7.75005V11.75L11.7516 11.7516ZM11.7578 1.27505V6.65005C10.4716 6.58673 9.20578 6.30291 8.01564 5.81098C8.20158 5.28286 8.41252 4.78598 8.64846 4.3188C9.52346 2.5938 10.6078 1.5313 11.7578 1.27505ZM9.28127 1.52192C8.68283 2.11567 8.14064 2.89223 7.66408 3.8313C7.42814 4.30473 7.21096 4.8063 7.01564 5.33911C6.26705 4.93453 5.56629 4.4471 4.92658 3.88598C6.1827 2.78202 7.67097 1.9746 9.28127 1.52348V1.52192ZM4.13283 4.6563C4.90324 5.34192 5.75618 5.92875 6.67189 6.40317C6.18456 8.14535 5.92253 9.94281 5.89221 11.7516H1.12033C1.25119 9.10407 2.31892 6.58925 4.13283 4.6563ZM1.12033 12.8579H5.89064C5.93752 14.7704 6.20783 16.6032 6.67971 18.236C5.7672 18.7056 4.91819 19.2894 4.15314 19.9735C2.32634 18.0396 1.25073 15.515 1.12033 12.8579ZM4.94846 20.7422C5.58908 20.1797 6.28752 19.6969 7.02658 19.3C7.21721 19.8188 7.42814 20.3157 7.66408 20.7766C8.14064 21.7219 8.68283 22.4954 9.28127 23.0922C7.67997 22.6403 6.19937 21.8375 4.94689 20.7422H4.94846ZM11.7578 23.3344C10.6078 23.0782 9.52346 22.0172 8.64846 20.2907C8.41079 19.8164 8.20259 19.328 8.02502 18.8282C9.21165 18.3364 10.4747 18.0546 11.7578 17.9954V23.3344ZM7.68752 17.7735C7.25342 16.1699 7.01884 14.5189 6.98908 12.8579H11.7547V16.8891C10.3583 16.9482 8.98242 17.2474 7.68752 17.7735ZM12.8594 23.3344V17.9954C14.1563 18.061 15.4172 18.3422 16.5922 18.8282C16.4063 19.3454 16.2016 19.8329 15.9688 20.2907C15.0953 22.0172 14.011 23.0782 12.8594 23.3344ZM15.336 23.0875C15.9344 22.4938 16.4766 21.7172 16.9531 20.7719C17.1951 20.2928 17.4085 19.7997 17.5922 19.2954C18.3297 19.6922 19.0281 20.175 19.6703 20.7375C18.4204 21.8365 16.9389 22.6397 15.336 23.0875ZM20.4688 19.9735C19.7029 19.2912 18.8547 18.7075 17.9438 18.236C18.4156 16.6032 18.686 14.7657 18.7313 12.8579H23.5031C23.3681 15.5147 22.2925 18.0368 20.4688 19.9735Z" fill="black"/>
</g>
<defs>
<clipPath id="clip0_10_22">
<rect width="25" height="25" fill="white"/>
</clipPath>
</defs>
</svg>
