<svg width="25" height="25" viewBox="0 0 25 25" fill="none" xmlns="http://www.w3.org/2000/svg">
<path fill-rule="evenodd" clip-rule="evenodd" d="M21.6469 3.35312C21.7196 3.4257 21.7774 3.51191 21.8167 3.60682C21.8561 3.70174 21.8764 3.80349 21.8764 3.90625C21.8764 4.00901 21.8561 4.11076 21.8167 4.20568C21.7774 4.30059 21.7196 4.3868 21.6469 4.45938L4.45938 21.6469C4.31268 21.7936 4.11371 21.876 3.90625 21.876C3.69879 21.876 3.49982 21.7936 3.35312 21.6469C3.20643 21.5002 3.12401 21.3012 3.12401 21.0937C3.12401 20.8863 3.20643 20.6873 3.35312 20.5406L20.5406 3.35312C20.6132 3.28037 20.6994 3.22265 20.7943 3.18326C20.8892 3.14388 20.991 3.1236 21.0937 3.1236C21.1965 3.1236 21.2983 3.14388 21.3932 3.18326C21.4881 3.22265 21.5743 3.28037 21.6469 3.35312Z" fill="white"/>
<path fill-rule="evenodd" clip-rule="evenodd" d="M3.35312 3.35312C3.28037 3.4257 3.22265 3.51191 3.18326 3.60682C3.14388 3.70174 3.1236 3.80349 3.1236 3.90625C3.1236 4.00901 3.14388 4.11076 3.18326 4.20568C3.22265 4.30059 3.28037 4.3868 3.35312 4.45938L20.5406 21.6469C20.6873 21.7936 20.8863 21.876 21.0937 21.876C21.3012 21.876 21.5002 21.7936 21.6469 21.6469C21.7936 21.5002 21.876 21.3012 21.876 21.0937C21.876 20.8863 21.7936 20.6873 21.6469 20.5406L4.45938 3.35312C4.3868 3.28037 4.30059 3.22265 4.20568 3.18326C4.11076 3.14388 4.00901 3.1236 3.90625 3.1236C3.80349 3.1236 3.70174 3.14388 3.60682 3.18326C3.51191 3.22265 3.4257 3.28037 3.35312 3.35312Z" fill="white"/>
</svg>
